<svg xmlns="http://www.w3.org/2000/svg" version="1.1" xmlns:xlink="http://www.w3.org/1999/xlink" xmlns:svgjs="http://svgjs.dev/svgjs" width="1000" height="1000" viewBox="0 0 1000 1000"><rect width="1000" height="1000" fill="#ffffff"></rect><g transform="matrix(0.7,0,0,0.7,150,218.95000000000005)"><svg viewBox="0 0 448 360" data-background-color="#ffffff" preserveAspectRatio="xMidYMid meet" height="803" width="1000" xmlns="http://www.w3.org/2000/svg" xmlns:xlink="http://www.w3.org/1999/xlink"><g id="tight-bounds" transform="matrix(1,0,0,1,0,0)"><svg viewBox="0 0 448 360" height="360" width="448"><g><svg></svg></g><g><svg viewBox="0 0 448 360" height="360" width="448"><g><path xmlns="http://www.w3.org/2000/svg" d="M193.855 44.683c1.378 0 2.494 1.116 2.495 2.494 0 1.378-1.116 2.494-2.495 2.495h-23.846l-17.167 17.167c-0.973 0.973-2.551 0.973-3.53 0-0.973-0.973-0.973-2.551 0-3.529l13.644-13.645h-40.378c-11.518 0-19.151 2.688-23.815 8.113-4.739 5.519-6.66 14.056-6.66 25.63 0 0.069 0 0.137-0.006 0.206l0.212 36.692 14.692-14.692c0.973-0.973 2.551-0.973 3.53 0 0.973 0.973 0.973 2.551 0 3.53l-18.178 18.178c0.206 35.832 0.193 71.358-0.013 107.19 25.486 25.2 50.617 50.312 75.811 75.791h25.38c1.378 0 2.494 1.116 2.495 2.495 0 1.378-1.116 2.494-2.495 2.494h-20.448l25.942 26.241 0.006-0.006c8.188 8.188 15.577 12.859 22.824 13.413 7.146 0.543 14.442-2.956 22.586-11.093l28.555-28.555h-20.722c-1.378 0-2.494-1.116-2.495-2.494 0-1.378 1.116-2.494 2.495-2.495h25.711l16.625-16.625c0.973-0.973 2.551-0.973 3.529 0 0.973 0.973 0.973 2.551 0 3.53l-13.101 13.102h40.377c11.518 0 19.151-2.688 23.815-8.113 4.739-5.519 6.66-14.056 6.66-25.63h0.013l-0.212-36.898-16.014 16.014c-0.973 0.973-2.551 0.973-3.53 0-0.973-0.973-0.973-2.551 0-3.53l19.5-19.5c-0.206-35.832-0.193-71.358 0.013-107.19-25.486-25.2-50.617-50.312-75.811-75.791h-26.147c-1.378 0-2.494-1.116-2.495-2.495 0-1.378 1.116-2.494 2.495-2.494h21.215l-25.824-26.123c-0.044-0.037-0.081-0.075-0.124-0.112-8.188-8.188-15.577-12.859-22.824-13.413-7.146-0.543-14.442 2.956-22.586 11.093l-28.555 28.555h18.858zM122.578 44.683h45.367l32.078-32.078c9.248-9.248 17.81-13.195 26.484-12.534 8.568 0.649 16.956 5.824 25.985 14.854 0.05 0.05 0.094 0.094 0.137 0.143l29.278 29.615h43.508c13.071 0 21.919 3.268 27.594 9.871 5.6 6.517 7.864 16.101 7.864 28.867 0 0.081-0.006 0.156-0.012 0.23l-0.225 39.742 28.43 28.112 0.006-0.006c9.03 9.03 14.206 17.411 14.854 25.985 0.661 8.674-3.293 17.236-12.534 26.484l-30.768 30.768 0.237 41.843h0.012c0 12.765-2.27 22.35-7.864 28.867-5.675 6.604-14.524 9.872-27.594 9.871h-45.366l-32.078 32.078c-9.248 9.248-17.81 13.195-26.484 12.534-8.568-0.649-16.956-5.824-25.985-14.854l0.006-0.006-29.421-29.758h-43.509c-13.071 0-21.919-3.268-27.594-9.872-5.6-6.517-7.864-16.101-7.863-28.866h0.012l0.231-39.972-28.293-27.969c-0.05-0.044-0.1-0.087-0.143-0.137-9.03-9.03-14.206-17.411-14.854-25.985-0.661-8.674 3.293-17.236 12.534-26.484l30.768-30.768-0.237-41.607c-0.006-0.075-0.012-0.156-0.012-0.23 0-12.765 2.27-22.35 7.864-28.867 5.675-6.604 14.524-9.872 27.594-9.871zM87.682 179.997l-0.274-47.724-27.276 27.276c-8.138 8.138-11.636 15.44-11.094 22.587 0.549 7.246 5.226 14.642 13.413 22.823 0.037 0.037 0.081 0.081 0.113 0.125l24.837 24.551 0.281-49.644zM92.303 241.483l-0.2 35.09h0.013c0 11.58 1.921 20.117 6.66 25.63 4.664 5.432 12.297 8.113 23.815 8.113h38.576l-33.55-33.936-35.308-34.903zM325.415 49.672h-38.575l33.549 33.936 35.308 34.902 0.2-34.884c-0.006-0.069-0.006-0.137-0.007-0.205 0-11.58-1.921-20.117-6.66-25.63-4.664-5.432-12.297-8.113-23.815-8.113zM360.599 130.352l-0.281 49.645 0.274 47.724 27.276-27.276c8.138-8.138 11.636-15.44 11.094-22.587-0.549-7.252-5.226-14.642-13.413-22.824l0.006-0.006-24.956-24.669z" fill="#708696" fill-rule="nonzero" stroke="none" stroke-width="1" stroke-linecap="butt" stroke-linejoin="miter" stroke-miterlimit="10" stroke-dasharray="" stroke-dashoffset="0" font-family="none" font-weight="none" font-size="none" text-anchor="none" style="mix-blend-mode: normal" data-fill-palette-color="tertiary"></path></g><g transform="matrix(1,0,0,1,123.68156017835759,90)"><svg viewBox="0 0 200.63687964328483 180" height="180" width="200.63687964328483"><g><svg viewBox="0 0 224 200.96006313338557" height="180" width="200.63687964328483"><g transform="matrix(1,0,0,1,0,121.73985046781283)"><svg viewBox="0 0 224 79.22021266557273" height="79.22021266557273" width="224"><g id="textblocktransform"><svg viewBox="0 0 224 79.22021266557273" height="79.22021266557273" width="224" id="textblock"><g><svg viewBox="0 0 224 51.92190889370933" height="51.92190889370933" width="224"><g transform="matrix(1,0,0,1,0,0)"><svg width="224" viewBox="0.8500000238418579 -36.040000915527344 157.55999755859375 36.53000259399414" height="51.92190889370933" data-palette-color="#708696"><path d="M25.02-35.55L30.86-10.25 35.64-35.55 42.94-35.55 35.06 0 27.69 0 21.9-23.78 16.11 0 8.74 0 0.85-35.55 8.15-35.55 12.96-10.3 18.82-35.55 25.02-35.55ZM54.69-35.55L54.69 0 47.36 0 47.36-35.55 54.69-35.55ZM90.38-35.55L90.38 0 83.05 0 68.79-23.39 68.79 0 61.47 0 61.47-35.55 68.79-35.55 83.08-12.11 83.08-35.55 90.38-35.55ZM117.35-11.84L124.68-11.84Q124.26-6.1 120.44-2.81 116.62 0.49 110.37 0.49L110.37 0.49Q103.53 0.49 99.61-4.11 95.7-8.72 95.7-16.75L95.7-16.75 95.7-18.92Q95.7-24.05 97.5-27.95 99.31-31.86 102.67-33.95 106.02-36.04 110.47-36.04L110.47-36.04Q116.62-36.04 120.38-32.74 124.14-29.44 124.72-23.49L124.72-23.49 117.4-23.49Q117.13-26.93 115.48-28.48 113.84-30.03 110.47-30.03L110.47-30.03Q106.8-30.03 104.99-27.4 103.17-24.78 103.12-19.26L103.12-19.26 103.12-16.58Q103.12-10.82 104.86-8.15 106.61-5.49 110.37-5.49L110.37-5.49Q113.76-5.49 115.43-7.04 117.11-8.59 117.35-11.84L117.35-11.84ZM158.41-35.55L158.41 0 151.09 0 151.09-15.23 136.81-15.23 136.81 0 129.48 0 129.48-35.55 136.81-35.55 136.81-21.14 151.09-21.14 151.09-35.55 158.41-35.55Z" opacity="1" transform="matrix(1,0,0,1,0,0)" fill="#708696" class="wordmark-text-0" data-fill-palette-color="primary" id="text-0"></path></svg></g></svg></g><g transform="matrix(1,0,0,1,42.784000000000006,64.17942545770066)"><svg viewBox="0 0 138.432 15.040787207872077" height="15.040787207872077" width="138.432"><g transform="matrix(1,0,0,1,0,0)"><svg width="138.432" viewBox="0.4000000059604645 -32.400001525878906 365.8000183105469 39.75" height="15.040787207872077" data-palette-color="#c9c0bb"><path d="M18.8-31.05L24.5 0 16.15 0 15.2-4.9 9.3-4.9 8.35 0 0.4 0 6.1-31.05 18.8-31.05ZM10.4-10.75L14.25-10.75 12.5-21.85 12.15-21.85 10.4-10.75ZM26.4-5.5L26.4-5.5 26.4-32.05 34.65-32.05 34.65-8.15Q34.65-7.3 35.02-6.95 35.4-6.6 36.35-6.6L36.35-6.6 35.7 0.5 32.95 0.5Q29.65 0.5 28.02-0.88 26.4-2.25 26.4-5.5ZM57.8-23.95L65.2-23.95 62.15 0 53 0 51.05-10.1 50.7-10.1 48.8 0 39.84 0 36.8-23.95 44.5-23.95 45.55-11.85 45.95-11.85 47.65-23.95 54.59-23.95 56.25-11.85 56.7-11.85 57.8-23.95ZM84.99-17.7L84.99-17.7 84.74-7.35Q84.74-6.4 85.22-6.08 85.69-5.75 86.84-5.75L86.84-5.75 86.09 0.3Q83.19 0.5 82.89 0.5L82.89 0.5Q79.19 0.5 78.19-2.05L78.19-2.05 77.94-2.05Q76.09 0.5 72.24 0.5L72.24 0.5Q69.29 0.5 67.72-1.4 66.14-3.3 66.14-6.6L66.14-6.6Q66.14-10.75 68.72-12.35 71.29-13.95 76.84-14.45L76.84-14.45 76.84-15.65Q76.84-17.05 75.44-17.05L75.44-17.05Q73.04-17.05 67.94-15.6L67.94-15.6 66.69-22.9Q73.09-24.55 77.34-24.55 81.59-24.55 83.29-22.9 84.99-21.25 84.99-17.7ZM75.34-5.35L75.34-5.35Q77.19-5.35 77.19-7.3L77.19-7.3 77.19-9.75Q75.34-9.5 74.57-8.97 73.79-8.45 73.79-7.2L73.79-7.2Q73.79-5.35 75.34-5.35ZM101.29-23.95L109.49-23.95 103.29 0.7Q102.34 4.4 100.49 5.88 98.64 7.35 94.44 7.35L94.44 7.35 89.44 7.35 88.69 0.9 91.49 0.9Q93.19 0.9 93.19-0.45L93.19-0.45Q93.19-0.75 92.99-1.75L92.99-1.75 87.24-23.95 96.14-23.95 98.39-9 98.84-9 101.29-23.95ZM109.69-16.88Q109.69-20.5 111.91-22.53 114.14-24.55 118.04-24.55 121.94-24.55 125.94-23.55L125.94-23.55 125.09-16.6Q119.99-17.75 118.24-17.75L118.24-17.75Q117.19-17.75 117.19-16.9L117.19-16.9Q117.19-16.35 118.34-15.9L118.34-15.9Q122.34-14.45 124.36-12.6 126.39-10.75 126.39-7.05 126.39-3.35 124.49-1.43 122.59 0.5 118.66 0.5 114.74 0.5 110.84-0.5L110.84-0.5 111.39-7.25Q116.39-5.9 117.86-5.9 119.34-5.9 119.34-6.6 119.34-7.3 118.24-7.7L118.24-7.7Q113.79-9.4 111.74-11.33 109.69-13.25 109.69-16.88ZM162.23-31.05L162.23 0 153.73 0 153.73-11.75 147.88-11.75 147.88 0 139.28 0 139.28-31.05 147.88-31.05 147.88-18.85 153.73-18.85 153.73-31.05 162.23-31.05ZM175.73-17.4L175.73-17.4Q174.43-17.4 174.03-16.53 173.63-15.65 173.63-13.85L173.63-13.85 177.98-13.85 177.98-15.05Q177.98-17.4 175.73-17.4ZM175.93-24.55L175.93-24.55Q181.08-24.55 183.31-22.08 185.53-19.6 185.53-15L185.53-15Q185.53-14.4 185.18-9.6L185.18-9.6 173.78-9.6Q173.78-5.85 177.23-5.85L177.23-5.85Q178.88-5.85 183.68-7L183.68-7 184.38-0.8Q180.18 0.5 175.98 0.5L175.98 0.5Q170.83 0.5 168.08-2.88 165.33-6.25 165.33-12.05L165.33-12.05Q165.33-24.55 175.93-24.55ZM196.13-13.45L196.13-13.45 196.13 0 187.83 0 187.83-23.95 195.13-23.95 195.63-22.5 195.83-22.5Q196.98-23.8 198.15-24.18 199.33-24.55 201.98-24.55L201.98-24.55 201.63-16.55 199.33-16.55Q197.38-16.55 196.75-15.95 196.13-15.35 196.13-13.45ZM213.48-17.4L213.48-17.4Q212.18-17.4 211.78-16.53 211.38-15.65 211.38-13.85L211.38-13.85 215.73-13.85 215.73-15.05Q215.73-17.4 213.48-17.4ZM213.68-24.55L213.68-24.55Q218.83-24.55 221.05-22.08 223.28-19.6 223.28-15L223.28-15Q223.28-14.4 222.93-9.6L222.93-9.6 211.53-9.6Q211.53-5.85 214.98-5.85L214.98-5.85Q216.63-5.85 221.43-7L221.43-7 222.13-0.8Q217.93 0.5 213.73 0.5L213.73 0.5Q208.58 0.5 205.83-2.88 203.08-6.25 203.08-12.05L203.08-12.05Q203.08-24.55 213.68-24.55ZM243.97-32.4L243.97-32.4Q247.07-32.4 250.47-32.1L250.47-32.1 249.77-24.8Q247.52-25.05 246.5-25.05 245.47-25.05 245.47-24.15L245.47-24.15 245.47-23.25 249.57-23.25 249.17-17.05 245.57-17.05 245.57 0 237.22 0 237.22-17.05 235.02-17.05 235.02-23.25 237.22-23.25 237.22-25.75Q237.22-32.4 243.97-32.4ZM250.32-12.08Q250.32-18.65 252.84-21.6 255.37-24.55 260.74-24.55 266.12-24.55 268.57-21.65 271.02-18.75 271.02-12.13 271.02-5.5 268.62-2.5 266.22 0.5 260.77 0.5 255.32 0.5 252.82-2.5 250.32-5.5 250.32-12.08ZM262.34-16.8Q262.02-17.8 260.72-17.8 259.42-17.8 259.07-16.8 258.72-15.8 258.72-12.6L258.72-12.6 258.72-11.4Q258.72-7.85 259.07-6.8 259.42-5.75 260.69-5.75 261.97-5.75 262.32-6.8 262.67-7.85 262.67-11.1L262.67-11.1 262.67-12.55Q262.67-15.8 262.34-16.8ZM281.92-13.45L281.92-13.45 281.92 0 273.62 0 273.62-23.95 280.92-23.95 281.42-22.5 281.62-22.5Q282.76-23.8 283.94-24.18 285.12-24.55 287.76-24.55L287.76-24.55 287.42-16.55 285.12-16.55Q283.17-16.55 282.54-15.95 281.92-15.35 281.92-13.45ZM312.46-31.05L321.46-31.05 314.06-9.6 314.06 0 305.56 0 305.56-9.6 298.26-31.05 307.66-31.05 309.91-20.95 310.31-20.95 312.46-31.05ZM322.56-12.08Q322.56-18.65 325.08-21.6 327.61-24.55 332.98-24.55 338.36-24.55 340.81-21.65 343.26-18.75 343.26-12.13 343.26-5.5 340.86-2.5 338.46 0.5 333.01 0.5 327.56 0.5 325.06-2.5 322.56-5.5 322.56-12.08ZM334.58-16.8Q334.26-17.8 332.96-17.8 331.66-17.8 331.31-16.8 330.96-15.8 330.96-12.6L330.96-12.6 330.96-11.4Q330.96-7.85 331.31-6.8 331.66-5.75 332.93-5.75 334.21-5.75 334.56-6.8 334.91-7.85 334.91-11.1L334.91-11.1 334.91-12.55Q334.91-15.8 334.58-16.8ZM351.8 0.5L351.8 0.5Q345.85 0.5 345.85-6.1L345.85-6.1 345.85-23.95 354.35-23.95 354.35-8.15Q354.35-6.9 355.45-6.9L355.45-6.9Q356.85-6.9 357.8-7.6L357.8-7.6 357.8-23.95 366.2-23.95 366.2-0.1 358.25-0.1 358.25-1.85 358.05-1.85Q355.3 0.5 351.8 0.5Z" opacity="1" transform="matrix(1,0,0,1,0,0)" fill="#c9c0bb" class="slogan-text-1" data-fill-palette-color="secondary" id="text-1"></path></svg></g></svg></g></svg></g></svg></g><g transform="matrix(1,0,0,1,57.258833048089244,0)"><svg viewBox="0 0 109.48233390382151 109.48233390382151" height="109.48233390382151" width="109.48233390382151"><g><svg></svg></g><g id="icon-0"><svg viewBox="0 0 109.48233390382151 109.48233390382151" height="109.48233390382151" width="109.48233390382151"><g><path xmlns="http://www.w3.org/2000/svg" d="M32.845 109.482c-18.14 0-32.845-14.705-32.845-32.844v-43.793c0-18.14 14.705-32.845 32.845-32.845h43.793c18.14 0 32.845 14.705 32.844 32.845v43.793c0 18.14-14.705 32.845-32.844 32.844z" fill="#b1907f" fill-rule="nonzero" stroke="none" stroke-width="1" stroke-linecap="butt" stroke-linejoin="miter" stroke-miterlimit="10" stroke-dasharray="" stroke-dashoffset="0" font-family="none" font-weight="none" font-size="none" text-anchor="none" style="mix-blend-mode: normal" data-fill-palette-color="accent"></path></g><g transform="matrix(1,0,0,1,22.9928726255215,21.8964667807643)"><svg viewBox="0 0 63.49658865277851 65.68940034229291" height="65.68940034229291" width="63.49658865277851"><g><svg xmlns="http://www.w3.org/2000/svg" data-name="Layer 3" viewBox="3 3 58 60.00299072265625" x="0" y="0" height="65.68940034229291" width="63.49658865277851" class="icon-s-0" data-fill-palette-color="quaternary" id="s-0"><polygon points="26 48.84 26.72 51 29.28 51 30 48.84 30 47 26 47 26 48.84" fill="#ffffff" data-fill-palette-color="quaternary"></polygon><path d="M11 12a3 3 0 0 1 3-3h1V7H14a5 5 0 0 0-5 5v6h2Z" fill="#ffffff" data-fill-palette-color="quaternary"></path><path d="M19 30V21a3 3 0 0 1 0.18-1H15.41l1.3 1.29A1 1 0 0 1 17 22v8Z" fill="#ffffff" data-fill-palette-color="quaternary"></path><rect x="8" y="38" width="4" height="2" fill="#ffffff" data-fill-palette-color="quaternary"></rect><path d="M15 22.41L12.59 20H7.41L5 22.41V30H15ZM11 28H9V26h2Zm2-4H7V22h6Z" fill="#ffffff" data-fill-palette-color="quaternary"></path><path d="M19 32H4a1 1 0 0 0-1 1v6a1 1 0 0 0 1 1H6V37a1 1 0 0 1 1-1h6a1 1 0 0 1 1 1v3h3V35a1 1 0 0 1 1-1h1Z" fill="#ffffff" data-fill-palette-color="quaternary"></path><path d="M45 21V34h2V21a1 1 0 0 0-2 0Z" fill="#ffffff" data-fill-palette-color="quaternary"></path><path d="M51 24V20H48.82A3 3 0 0 1 49 21v3Z" fill="#ffffff" data-fill-palette-color="quaternary"></path><path d="M47 5a2 2 0 0 0-4 0v6h4ZM46 9H44V7h2Z" fill="#ffffff" data-fill-palette-color="quaternary"></path><rect x="23" y="7" width="18" height="2" fill="#ffffff" data-fill-palette-color="quaternary"></rect><path d="M53 12V24h2V12a5 5 0 0 0-5-5H49V9h1A3 3 0 0 1 53 12Z" fill="#ffffff" data-fill-palette-color="quaternary"></path><path d="M15 11H14a1 1 0 0 0-1 1v2H51V12a1 1 0 0 0-1-1H49v1a1 1 0 0 1-1 1H42a1 1 0 0 1-1-1V11H23v1a1 1 0 0 1-1 1H16a1 1 0 0 1-1-1Z" fill="#ffffff" data-fill-palette-color="quaternary"></path><rect x="19" y="36" width="4" height="6" fill="#ffffff" data-fill-palette-color="quaternary"></rect><path d="M21 5a2 2 0 0 0-4 0v6h4ZM20 9H18V7h2Z" fill="#ffffff" data-fill-palette-color="quaternary"></path><rect x="13" y="16" width="38" height="2" fill="#ffffff" data-fill-palette-color="quaternary"></rect><rect x="33" y="24" width="2" height="14" fill="#ffffff" data-fill-palette-color="quaternary"></rect><polygon points="41 24 41 38 43 38 43 35 43 35 43 35 43 24 41 24" fill="#ffffff" data-fill-palette-color="quaternary"></polygon><rect x="37" y="24" width="2" height="14" fill="#ffffff" data-fill-palette-color="quaternary"></rect><rect x="59" y="29" width="2" height="8" fill="#ffffff" data-fill-palette-color="quaternary"></rect><rect x="45" y="36" width="4" height="6" fill="#ffffff" data-fill-palette-color="quaternary"></rect><path d="M56 26H49v8h1a1 1 0 0 1 1 1v5h5a1 1 0 0 0 1-1V27A1 1 0 0 0 56 26ZM55 38H53V36h2Zm0-8H53V28h2Z" fill="#ffffff" data-fill-palette-color="quaternary"></path><polygon points="25 35 25 35 25 35 25 38 27 38 27 24 25 24 25 35" fill="#ffffff" data-fill-palette-color="quaternary"></polygon><path d="M25 21v1H43V21a3 3 0 0 1 0.18-1H24.82A3 3 0 0 1 25 21Z" fill="#ffffff" data-fill-palette-color="quaternary"></path><path d="M22 20a1 1 0 0 0-1 1V34h2V21A1 1 0 0 0 22 20Z" fill="#ffffff" data-fill-palette-color="quaternary"></path><rect x="29" y="24" width="2" height="14" fill="#ffffff" data-fill-palette-color="quaternary"></rect><rect x="27" y="40" width="2" height="5" fill="#ffffff" data-fill-palette-color="quaternary"></rect><path d="M28 61a2 2 0 0 1 0-4 1 1 0 0 0 1-1V53H27v2.13A4 4 0 1 0 32 59H30A2 2 0 0 1 28 61Z" fill="#ffffff" data-fill-palette-color="quaternary"></path></svg></g></svg></g></svg></g></svg></g><g></g></svg></g></svg></g></svg></g><defs></defs></svg><rect width="448" height="360" fill="none" stroke="none" visibility="hidden"></rect></g></svg></g></svg>